  0
SECTION
  2
HEADER
  9
$ACADVER
  1
AC1009
  9
$EXTMIN
 10
0.0
 20
0.0
 30
0.0
  9
$EXTMAX
 10
1000.0
 20
1000.0
 30
0.0
  9
$FILLMODE
 70
 0
  9
$SPLFRAME
 70
 1
  0
ENDSEC
  0
SECTION
  2
TABLES
  0
TABLE
  2
LAYER
 70
1
  0
LAYER
  2
0
 70
     0
 62
     7
  6
CONTINUOUS
  0
ENDTAB
  0
ENDSEC
  0
SECTION
  2
ENTITIES
  0
LINE
  8
0
 62
     5
 10
345.708
 20
115.616
 30
0.0
 11
345.944
 21
115.606
 31
0.0
  0
LINE
  8
0
 62
     5
 10
345.944
 20
115.606
 30
0.0
 11
346.177
 21
115.58
 31
0.0
  0
LINE
  8
0
 62
     5
 10
346.177
 20
115.58
 30
0.0
 11
346.408
 21
115.533
 31
0.0
  0
LINE
  8
0
 62
     5
 10
346.408
 20
115.533
 30
0.0
 11
346.636
 21
115.47
 31
0.0
  0
LINE
  8
0
 62
     5
 10
346.636
 20
115.47
 30
0.0
 11
346.856
 21
115.387
 31
0.0
  0
LINE
  8
0
 62
     5
 10
346.856
 20
115.387
 30
0.0
 11
347.07
 21
115.29
 31
0.0
  0
LINE
  8
0
 62
     5
 10
347.07
 20
115.29
 30
0.0
 11
347.275
 21
115.174
 31
0.0
  0
LINE
  8
0
 62
     5
 10
347.275
 20
115.174
 30
0.0
 11
347.471
 21
115.044
 31
0.0
  0
LINE
  8
0
 62
     5
 10
347.471
 20
115.044
 30
0.0
 11
347.657
 21
114.898
 31
0.0
  0
LINE
  8
0
 62
     5
 10
347.657
 20
114.898
 30
0.0
 11
347.829
 21
114.738
 31
0.0
  0
LINE
  8
0
 62
     5
 10
347.829
 20
114.738
 30
0.0
 11
347.989
 21
114.565
 31
0.0
  0
LINE
  8
0
 62
     5
 10
347.989
 20
114.565
 30
0.0
 11
348.135
 21
114.38
 31
0.0
  0
LINE
  8
0
 62
     5
 10
348.135
 20
114.38
 30
0.0
 11
348.266
 21
114.184
 31
0.0
  0
LINE
  8
0
 62
     5
 10
348.266
 20
114.184
 30
0.0
 11
348.382
 21
113.978
 31
0.0
  0
LINE
  8
0
 62
     5
 10
348.382
 20
113.978
 30
0.0
 11
348.481
 21
113.764
 31
0.0
  0
LINE
  8
0
 62
     5
 10
348.481
 20
113.764
 30
0.0
 11
348.561
 21
113.543
 31
0.0
  0
LINE
  8
0
 62
     5
 10
348.561
 20
113.543
 30
0.0
 11
348.626
 21
113.316
 31
0.0
  0
LINE
  8
0
 62
     5
 10
348.626
 20
113.316
 30
0.0
 11
348.671
 21
113.086
 31
0.0
  0
LINE
  8
0
 62
     5
 10
348.671
 20
113.086
 30
0.0
 11
348.7
 21
112.852
 31
0.0
  0
LINE
  8
0
 62
     5
 10
348.7
 20
112.852
 30
0.0
 11
348.708
 21
112.616
 31
0.0
  0
LINE
  8
0
 62
     5
 10
348.708
 20
112.616
 30
0.0
 11
348.708
 21
3.36517
 31
0.0
  0
LINE
  8
0
 62
     5
 10
348.708
 20
3.36517
 30
0.0
 11
348.7
 21
3.12952
 31
0.0
  0
LINE
  8
0
 62
     5
 10
348.7
 20
3.12952
 30
0.0
 11
348.671
 21
2.89526
 31
0.0
  0
LINE
  8
0
 62
     5
 10
348.671
 20
2.89526
 30
0.0
 11
348.626
 21
2.66513
 31
0.0
  0
LINE
  8
0
 62
     5
 10
348.626
 20
2.66513
 30
0.0
 11
348.561
 21
2.43775
 31
0.0
  0
LINE
  8
0
 62
     5
 10
348.561
 20
2.43775
 30
0.0
 11
348.481
 21
2.21726
 31
0.0
  0
LINE
  8
0
 62
     5
 10
348.481
 20
2.21726
 30
0.0
 11
348.382
 21
2.00367
 31
0.0
  0
LINE
  8
0
 62
     5
 10
348.382
 20
2.00367
 30
0.0
 11
348.266
 21
1.79696
 31
0.0
  0
LINE
  8
0
 62
     5
 10
348.266
 20
1.79696
 30
0.0
 11
348.135
 21
1.60128
 31
0.0
  0
LINE
  8
0
 62
     5
 10
348.135
 20
1.60128
 30
0.0
 11
347.989
 21
1.41662
 31
0.0
  0
LINE
  8
0
 62
     5
 10
347.989
 20
1.41662
 30
0.0
 11
347.829
 21
1.24299
 31
0.0
  0
LINE
  8
0
 62
     5
 10
347.829
 20
1.24299
 30
0.0
 11
347.657
 21
1.08314
 31
0.0
  0
LINE
  8
0
 62
     5
 10
347.657
 20
1.08314
 30
0.0
 11
347.471
 21
0.937066
 31
0.0
  0
LINE
  8
0
 62
     5
 10
347.471
 20
0.937066
 30
0.0
 11
347.275
 21
0.80753
 31
0.0
  0
LINE
  8
0
 62
     5
 10
347.275
 20
0.80753
 30
0.0
 11
347.07
 21
0.691776
 31
0.0
  0
LINE
  8
0
 62
     5
 10
347.07
 20
0.691776
 30
0.0
 11
346.856
 21
0.593933
 31
0.0
  0
LINE
  8
0
 62
     5
 10
346.856
 20
0.593933
 30
0.0
 11
346.636
 21
0.511253
 31
0.0
  0
LINE
  8
0
 62
     5
 10
346.636
 20
0.511253
 30
0.0
 11
346.408
 21
0.447862
 31
0.0
  0
LINE
  8
0
 62
     5
 10
346.408
 20
0.447862
 30
0.0
 11
346.177
 21
0.40101
 31
0.0
  0
LINE
  8
0
 62
     5
 10
346.177
 20
0.40101
 30
0.0
 11
345.944
 21
0.374826
 31
0.0
  0
LINE
  8
0
 62
     5
 10
345.944
 20
0.374826
 30
0.0
 11
345.708
 21
0.365181
 31
0.0
  0
LINE
  8
0
 62
     5
 10
345.708
 20
0.365181
 30
0.0
 11
3.09507
 21
0.365181
 31
0.0
  0
LINE
  8
0
 62
     5
 10
3.09507
 20
0.365181
 30
0.0
 11
2.85943
 21
0.374826
 31
0.0
  0
LINE
  8
0
 62
     5
 10
2.85943
 20
0.374826
 30
0.0
 11
2.62516
 21
0.40101
 31
0.0
  0
LINE
  8
0
 62
     5
 10
2.62516
 20
0.40101
 30
0.0
 11
2.39503
 21
0.447862
 31
0.0
  0
LINE
  8
0
 62
     5
 10
2.39503
 20
0.447862
 30
0.0
 11
2.16765
 21
0.511253
 31
0.0
  0
LINE
  8
0
 62
     5
 10
2.16765
 20
0.511253
 30
0.0
 11
1.94717
 21
0.593933
 31
0.0
  0
LINE
  8
0
 62
     5
 10
1.94717
 20
0.593933
 30
0.0
 11
1.73357
 21
0.691776
 31
0.0
  0
LINE
  8
0
 62
     5
 10
1.73357
 20
0.691776
 30
0.0
 11
1.52687
 21
0.80753
 31
0.0
  0
LINE
  8
0
 62
     5
 10
1.52687
 20
0.80753
 30
0.0
 11
1.33119
 21
0.937066
 31
0.0
  0
LINE
  8
0
 62
     5
 10
1.33119
 20
0.937066
 30
0.0
 11
1.14653
 21
1.08314
 31
0.0
  0
LINE
  8
0
 62
     5
 10
1.14653
 20
1.08314
 30
0.0
 11
0.972894
 21
1.24299
 31
0.0
  0
LINE
  8
0
 62
     5
 10
0.972894
 20
1.24299
 30
0.0
 11
0.813043
 21
1.41662
 31
0.0
  0
LINE
  8
0
 62
     5
 10
0.813043
 20
1.41662
 30
0.0
 11
0.666972
 21
1.60128
 31
0.0
  0
LINE
  8
0
 62
     5
 10
0.666972
 20
1.60128
 30
0.0
 11
0.537436
 21
1.79696
 31
0.0
  0
LINE
  8
0
 62
     5
 10
0.537436
 20
1.79696
 30
0.0
 11
0.421679
 21
2.00367
 31
0.0
  0
LINE
  8
0
 62
     5
 10
0.421679
 20
2.00367
 30
0.0
 11
0.323839
 21
2.21726
 31
0.0
  0
LINE
  8
0
 62
     5
 10
0.323839
 20
2.21726
 30
0.0
 11
0.241157
 21
2.43775
 31
0.0
  0
LINE
  8
0
 62
     5
 10
0.241157
 20
2.43775
 30
0.0
 11
0.177767
 21
2.66513
 31
0.0
  0
LINE
  8
0
 62
     5
 10
0.177767
 20
2.66513
 30
0.0
 11
0.130914
 21
2.89526
 31
0.0
  0
LINE
  8
0
 62
     5
 10
0.130914
 20
2.89526
 30
0.0
 11
0.104731
 21
3.12952
 31
0.0
  0
LINE
  8
0
 62
     5
 10
0.104731
 20
3.12952
 30
0.0
 11
0.0950846
 21
3.36517
 31
0.0
  0
LINE
  8
0
 62
     5
 10
0.0950846
 20
3.36517
 30
0.0
 11
0.0950846
 21
112.616
 31
0.0
  0
LINE
  8
0
 62
     5
 10
0.0950846
 20
112.616
 30
0.0
 11
0.104731
 21
112.852
 31
0.0
  0
LINE
  8
0
 62
     5
 10
0.104731
 20
112.852
 30
0.0
 11
0.130914
 21
113.086
 31
0.0
  0
LINE
  8
0
 62
     5
 10
0.130914
 20
113.086
 30
0.0
 11
0.177767
 21
113.316
 31
0.0
  0
LINE
  8
0
 62
     5
 10
0.177767
 20
113.316
 30
0.0
 11
0.241157
 21
113.543
 31
0.0
  0
LINE
  8
0
 62
     5
 10
0.241157
 20
113.543
 30
0.0
 11
0.323839
 21
113.764
 31
0.0
  0
LINE
  8
0
 62
     5
 10
0.323839
 20
113.764
 30
0.0
 11
0.421679
 21
113.978
 31
0.0
  0
LINE
  8
0
 62
     5
 10
0.421679
 20
113.978
 30
0.0
 11
0.537436
 21
114.184
 31
0.0
  0
LINE
  8
0
 62
     5
 10
0.537436
 20
114.184
 30
0.0
 11
0.666972
 21
114.38
 31
0.0
  0
LINE
  8
0
 62
     5
 10
0.666972
 20
114.38
 30
0.0
 11
0.813043
 21
114.565
 31
0.0
  0
LINE
  8
0
 62
     5
 10
0.813043
 20
114.565
 30
0.0
 11
0.972894
 21
114.738
 31
0.0
  0
LINE
  8
0
 62
     5
 10
0.972894
 20
114.738
 30
0.0
 11
1.14653
 21
114.898
 31
0.0
  0
LINE
  8
0
 62
     5
 10
1.14653
 20
114.898
 30
0.0
 11
1.33119
 21
115.044
 31
0.0
  0
LINE
  8
0
 62
     5
 10
1.33119
 20
115.044
 30
0.0
 11
1.52687
 21
115.174
 31
0.0
  0
LINE
  8
0
 62
     5
 10
1.52687
 20
115.174
 30
0.0
 11
1.73357
 21
115.29
 31
0.0
  0
LINE
  8
0
 62
     5
 10
1.73357
 20
115.29
 30
0.0
 11
1.94717
 21
115.387
 31
0.0
  0
LINE
  8
0
 62
     5
 10
1.94717
 20
115.387
 30
0.0
 11
2.16765
 21
115.47
 31
0.0
  0
LINE
  8
0
 62
     5
 10
2.16765
 20
115.47
 30
0.0
 11
2.39503
 21
115.533
 31
0.0
  0
LINE
  8
0
 62
     5
 10
2.39503
 20
115.533
 30
0.0
 11
2.62516
 21
115.58
 31
0.0
  0
LINE
  8
0
 62
     5
 10
2.62516
 20
115.58
 30
0.0
 11
2.85943
 21
115.606
 31
0.0
  0
LINE
  8
0
 62
     5
 10
2.85943
 20
115.606
 30
0.0
 11
3.09507
 21
115.616
 31
0.0
  0
LINE
  8
0
 62
     5
 10
3.09507
 20
115.616
 30
0.0
 11
345.708
 21
115.616
 31
0.0
  0
LINE
  8
0
 62
     5
 10
4.55443
 20
7.02938
 30
0.0
 11
4.06658
 21
6.77997
 31
0.0
  0
LINE
  8
0
 62
     5
 10
4.06658
 20
6.77997
 30
0.0
 11
3.67937
 21
6.3941
 31
0.0
  0
LINE
  8
0
 62
     5
 10
3.67937
 20
6.3941
 30
0.0
 11
3.42994
 21
5.90628
 31
0.0
  0
LINE
  8
0
 62
     5
 10
3.42994
 20
5.90628
 30
0.0
 11
3.3445
 21
5.36607
 31
0.0
  0
LINE
  8
0
 62
     5
 10
3.3445
 20
5.36607
 30
0.0
 11
3.42994
 21
4.82452
 31
0.0
  0
LINE
  8
0
 62
     5
 10
3.42994
 20
4.82452
 30
0.0
 11
3.67937
 21
4.3367
 31
0.0
  0
LINE
  8
0
 62
     5
 10
3.67937
 20
4.3367
 30
0.0
 11
4.06658
 21
3.94945
 31
0.0
  0
LINE
  8
0
 62
     5
 10
4.06658
 20
3.94945
 30
0.0
 11
4.55443
 21
3.70004
 31
0.0
  0
LINE
  8
0
 62
     5
 10
4.55443
 20
3.70004
 30
0.0
 11
5.0946
 21
3.61597
 31
0.0
  0
LINE
  8
0
 62
     5
 10
5.0946
 20
3.61597
 30
0.0
 11
5.63619
 21
3.70004
 31
0.0
  0
LINE
  8
0
 62
     5
 10
5.63619
 20
3.70004
 30
0.0
 11
6.12401
 21
3.94945
 31
0.0
  0
LINE
  8
0
 62
     5
 10
6.12401
 20
3.94945
 30
0.0
 11
6.50984
 21
4.3367
 31
0.0
  0
LINE
  8
0
 62
     5
 10
6.50984
 20
4.3367
 30
0.0
 11
6.75929
 21
4.82452
 31
0.0
  0
LINE
  8
0
 62
     5
 10
6.75929
 20
4.82452
 30
0.0
 11
6.8447
 21
5.36607
 31
0.0
  0
LINE
  8
0
 62
     5
 10
6.8447
 20
5.36607
 30
0.0
 11
6.75929
 21
5.90628
 31
0.0
  0
LINE
  8
0
 62
     5
 10
6.75929
 20
5.90628
 30
0.0
 11
6.50984
 21
6.3941
 31
0.0
  0
LINE
  8
0
 62
     5
 10
6.50984
 20
6.3941
 30
0.0
 11
6.12401
 21
6.77997
 31
0.0
  0
LINE
  8
0
 62
     5
 10
6.12401
 20
6.77997
 30
0.0
 11
5.63619
 21
7.02938
 31
0.0
  0
LINE
  8
0
 62
     5
 10
5.63619
 20
7.02938
 30
0.0
 11
5.0946
 21
7.1162
 31
0.0
  0
LINE
  8
0
 62
     5
 10
5.0946
 20
7.1162
 30
0.0
 11
4.55443
 21
7.02938
 31
0.0
  0
LINE
  8
0
 62
     5
 10
89.2073
 20
7.02938
 30
0.0
 11
88.7194
 21
6.77997
 31
0.0
  0
LINE
  8
0
 62
     5
 10
88.7194
 20
6.77997
 30
0.0
 11
88.3324
 21
6.3941
 31
0.0
  0
LINE
  8
0
 62
     5
 10
88.3324
 20
6.3941
 30
0.0
 11
88.0844
 21
5.90628
 31
0.0
  0
LINE
  8
0
 62
     5
 10
88.0844
 20
5.90628
 30
0.0
 11
87.9987
 21
5.36607
 31
0.0
  0
LINE
  8
0
 62
     5
 10
87.9987
 20
5.36607
 30
0.0
 11
88.0844
 21
4.82452
 31
0.0
  0
LINE
  8
0
 62
     5
 10
88.0844
 20
4.82452
 30
0.0
 11
88.3324
 21
4.3367
 31
0.0
  0
LINE
  8
0
 62
     5
 10
88.3324
 20
4.3367
 30
0.0
 11
88.7194
 21
3.94945
 31
0.0
  0
LINE
  8
0
 62
     5
 10
88.7194
 20
3.94945
 30
0.0
 11
89.2073
 21
3.70004
 31
0.0
  0
LINE
  8
0
 62
     5
 10
89.2073
 20
3.70004
 30
0.0
 11
89.7488
 21
3.61597
 31
0.0
  0
LINE
  8
0
 62
     5
 10
89.7488
 20
3.61597
 30
0.0
 11
90.2892
 21
3.70004
 31
0.0
  0
LINE
  8
0
 62
     5
 10
90.2892
 20
3.70004
 30
0.0
 11
90.7768
 21
3.94945
 31
0.0
  0
LINE
  8
0
 62
     5
 10
90.7768
 20
3.94945
 30
0.0
 11
91.1641
 21
4.3367
 31
0.0
  0
LINE
  8
0
 62
     5
 10
91.1641
 20
4.3367
 30
0.0
 11
91.4121
 21
4.82452
 31
0.0
  0
LINE
  8
0
 62
     5
 10
91.4121
 20
4.82452
 30
0.0
 11
91.4989
 21
5.36607
 31
0.0
  0
LINE
  8
0
 62
     5
 10
91.4989
 20
5.36607
 30
0.0
 11
91.4121
 21
5.90628
 31
0.0
  0
LINE
  8
0
 62
     5
 10
91.4121
 20
5.90628
 30
0.0
 11
91.1641
 21
6.3941
 31
0.0
  0
LINE
  8
0
 62
     5
 10
91.1641
 20
6.3941
 30
0.0
 11
90.7768
 21
6.77997
 31
0.0
  0
LINE
  8
0
 62
     5
 10
90.7768
 20
6.77997
 30
0.0
 11
90.2892
 21
7.02938
 31
0.0
  0
LINE
  8
0
 62
     5
 10
90.2892
 20
7.02938
 30
0.0
 11
89.7488
 21
7.1162
 31
0.0
  0
LINE
  8
0
 62
     5
 10
89.7488
 20
7.1162
 30
0.0
 11
89.2073
 21
7.02938
 31
0.0
  0
LINE
  8
0
 62
     5
 10
173.86
 20
7.02938
 30
0.0
 11
173.374
 21
6.77997
 31
0.0
  0
LINE
  8
0
 62
     5
 10
173.374
 20
6.77997
 30
0.0
 11
172.985
 21
6.3941
 31
0.0
  0
LINE
  8
0
 62
     5
 10
172.985
 20
6.3941
 30
0.0
 11
172.737
 21
5.90628
 31
0.0
  0
LINE
  8
0
 62
     5
 10
172.737
 20
5.90628
 30
0.0
 11
172.652
 21
5.36607
 31
0.0
  0
LINE
  8
0
 62
     5
 10
172.652
 20
5.36607
 30
0.0
 11
172.737
 21
4.82452
 31
0.0
  0
LINE
  8
0
 62
     5
 10
172.737
 20
4.82452
 30
0.0
 11
172.985
 21
4.3367
 31
0.0
  0
LINE
  8
0
 62
     5
 10
172.985
 20
4.3367
 30
0.0
 11
173.374
 21
3.94945
 31
0.0
  0
LINE
  8
0
 62
     5
 10
173.374
 20
3.94945
 30
0.0
 11
173.86
 21
3.70004
 31
0.0
  0
LINE
  8
0
 62
     5
 10
173.86
 20
3.70004
 30
0.0
 11
174.402
 21
3.61597
 31
0.0
  0
LINE
  8
0
 62
     5
 10
174.402
 20
3.61597
 30
0.0
 11
174.942
 21
3.70004
 31
0.0
  0
LINE
  8
0
 62
     5
 10
174.942
 20
3.70004
 30
0.0
 11
175.431
 21
3.94945
 31
0.0
  0
LINE
  8
0
 62
     5
 10
175.431
 20
3.94945
 30
0.0
 11
175.817
 21
4.3367
 31
0.0
  0
LINE
  8
0
 62
     5
 10
175.817
 20
4.3367
 30
0.0
 11
176.066
 21
4.82452
 31
0.0
  0
LINE
  8
0
 62
     5
 10
176.066
 20
4.82452
 30
0.0
 11
176.152
 21
5.36607
 31
0.0
  0
LINE
  8
0
 62
     5
 10
176.152
 20
5.36607
 30
0.0
 11
176.066
 21
5.90628
 31
0.0
  0
LINE
  8
0
 62
     5
 10
176.066
 20
5.90628
 30
0.0
 11
175.817
 21
6.3941
 31
0.0
  0
LINE
  8
0
 62
     5
 10
175.817
 20
6.3941
 30
0.0
 11
175.431
 21
6.77997
 31
0.0
  0
LINE
  8
0
 62
     5
 10
175.431
 20
6.77997
 30
0.0
 11
174.942
 21
7.02938
 31
0.0
  0
LINE
  8
0
 62
     5
 10
174.942
 20
7.02938
 30
0.0
 11
174.402
 21
7.1162
 31
0.0
  0
LINE
  8
0
 62
     5
 10
174.402
 20
7.1162
 30
0.0
 11
173.86
 21
7.02938
 31
0.0
  0
LINE
  8
0
 62
     5
 10
258.514
 20
7.02938
 30
0.0
 11
258.027
 21
6.77997
 31
0.0
  0
LINE
  8
0
 62
     5
 10
258.027
 20
6.77997
 30
0.0
 11
257.639
 21
6.3941
 31
0.0
  0
LINE
  8
0
 62
     5
 10
257.639
 20
6.3941
 30
0.0
 11
257.39
 21
5.90628
 31
0.0
  0
LINE
  8
0
 62
     5
 10
257.39
 20
5.90628
 30
0.0
 11
257.306
 21
5.36607
 31
0.0
  0
LINE
  8
0
 62
     5
 10
257.306
 20
5.36607
 30
0.0
 11
257.39
 21
4.82452
 31
0.0
  0
LINE
  8
0
 62
     5
 10
257.39
 20
4.82452
 30
0.0
 11
257.639
 21
4.3367
 31
0.0
  0
LINE
  8
0
 62
     5
 10
257.639
 20
4.3367
 30
0.0
 11
258.027
 21
3.94945
 31
0.0
  0
LINE
  8
0
 62
     5
 10
258.027
 20
3.94945
 30
0.0
 11
258.514
 21
3.70004
 31
0.0
  0
LINE
  8
0
 62
     5
 10
258.514
 20
3.70004
 30
0.0
 11
259.056
 21
3.61597
 31
0.0
  0
LINE
  8
0
 62
     5
 10
259.056
 20
3.61597
 30
0.0
 11
259.595
 21
3.70004
 31
0.0
  0
LINE
  8
0
 62
     5
 10
259.595
 20
3.70004
 30
0.0
 11
260.084
 21
3.94945
 31
0.0
  0
LINE
  8
0
 62
     5
 10
260.084
 20
3.94945
 30
0.0
 11
260.47
 21
4.3367
 31
0.0
  0
LINE
  8
0
 62
     5
 10
260.47
 20
4.3367
 30
0.0
 11
260.719
 21
4.82452
 31
0.0
  0
LINE
  8
0
 62
     5
 10
260.719
 20
4.82452
 30
0.0
 11
260.806
 21
5.36607
 31
0.0
  0
LINE
  8
0
 62
     5
 10
260.806
 20
5.36607
 30
0.0
 11
260.719
 21
5.90628
 31
0.0
  0
LINE
  8
0
 62
     5
 10
260.719
 20
5.90628
 30
0.0
 11
260.47
 21
6.3941
 31
0.0
  0
LINE
  8
0
 62
     5
 10
260.47
 20
6.3941
 30
0.0
 11
260.084
 21
6.77997
 31
0.0
  0
LINE
  8
0
 62
     5
 10
260.084
 20
6.77997
 30
0.0
 11
259.595
 21
7.02938
 31
0.0
  0
LINE
  8
0
 62
     5
 10
259.595
 20
7.02938
 30
0.0
 11
259.056
 21
7.1162
 31
0.0
  0
LINE
  8
0
 62
     5
 10
259.056
 20
7.1162
 30
0.0
 11
258.514
 21
7.02938
 31
0.0
  0
LINE
  8
0
 62
     5
 10
343.167
 20
7.02938
 30
0.0
 11
342.68
 21
6.77997
 31
0.0
  0
LINE
  8
0
 62
     5
 10
342.68
 20
6.77997
 30
0.0
 11
342.292
 21
6.3941
 31
0.0
  0
LINE
  8
0
 62
     5
 10
342.292
 20
6.3941
 30
0.0
 11
342.044
 21
5.90628
 31
0.0
  0
LINE
  8
0
 62
     5
 10
342.044
 20
5.90628
 30
0.0
 11
341.959
 21
5.36607
 31
0.0
  0
LINE
  8
0
 62
     5
 10
341.959
 20
5.36607
 30
0.0
 11
342.044
 21
4.82452
 31
0.0
  0
LINE
  8
0
 62
     5
 10
342.044
 20
4.82452
 30
0.0
 11
342.292
 21
4.3367
 31
0.0
  0
LINE
  8
0
 62
     5
 10
342.292
 20
4.3367
 30
0.0
 11
342.68
 21
3.94945
 31
0.0
  0
LINE
  8
0
 62
     5
 10
342.68
 20
3.94945
 30
0.0
 11
343.167
 21
3.70004
 31
0.0
  0
LINE
  8
0
 62
     5
 10
343.167
 20
3.70004
 30
0.0
 11
343.709
 21
3.61597
 31
0.0
  0
LINE
  8
0
 62
     5
 10
343.709
 20
3.61597
 30
0.0
 11
344.249
 21
3.70004
 31
0.0
  0
LINE
  8
0
 62
     5
 10
344.249
 20
3.70004
 30
0.0
 11
344.737
 21
3.94945
 31
0.0
  0
LINE
  8
0
 62
     5
 10
344.737
 20
3.94945
 30
0.0
 11
345.124
 21
4.3367
 31
0.0
  0
LINE
  8
0
 62
     5
 10
345.124
 20
4.3367
 30
0.0
 11
345.372
 21
4.82452
 31
0.0
  0
LINE
  8
0
 62
     5
 10
345.372
 20
4.82452
 30
0.0
 11
345.459
 21
5.36607
 31
0.0
  0
LINE
  8
0
 62
     5
 10
345.459
 20
5.36607
 30
0.0
 11
345.372
 21
5.90628
 31
0.0
  0
LINE
  8
0
 62
     5
 10
345.372
 20
5.90628
 30
0.0
 11
345.124
 21
6.3941
 31
0.0
  0
LINE
  8
0
 62
     5
 10
345.124
 20
6.3941
 30
0.0
 11
344.737
 21
6.77997
 31
0.0
  0
LINE
  8
0
 62
     5
 10
344.737
 20
6.77997
 30
0.0
 11
344.249
 21
7.02938
 31
0.0
  0
LINE
  8
0
 62
     5
 10
344.249
 20
7.02938
 30
0.0
 11
343.709
 21
7.1162
 31
0.0
  0
LINE
  8
0
 62
     5
 10
343.709
 20
7.1162
 30
0.0
 11
343.167
 21
7.02938
 31
0.0
  0
LINE
  8
0
 62
     5
 10
4.55443
 20
112.281
 30
0.0
 11
4.06658
 21
112.032
 31
0.0
  0
LINE
  8
0
 62
     5
 10
4.06658
 20
112.032
 30
0.0
 11
3.67937
 21
111.645
 31
0.0
  0
LINE
  8
0
 62
     5
 10
3.67937
 20
111.645
 30
0.0
 11
3.42994
 21
111.157
 31
0.0
  0
LINE
  8
0
 62
     5
 10
3.42994
 20
111.157
 30
0.0
 11
3.3445
 21
110.615
 31
0.0
  0
LINE
  8
0
 62
     5
 10
3.3445
 20
110.615
 30
0.0
 11
3.42994
 21
110.075
 31
0.0
  0
LINE
  8
0
 62
     5
 10
3.42994
 20
110.075
 30
0.0
 11
3.67937
 21
109.587
 31
0.0
  0
LINE
  8
0
 62
     5
 10
3.67937
 20
109.587
 30
0.0
 11
4.06658
 21
109.201
 31
0.0
  0
LINE
  8
0
 62
     5
 10
4.06658
 20
109.201
 30
0.0
 11
4.55443
 21
108.952
 31
0.0
  0
LINE
  8
0
 62
     5
 10
4.55443
 20
108.952
 30
0.0
 11
5.0946
 21
108.865
 31
0.0
  0
LINE
  8
0
 62
     5
 10
5.0946
 20
108.865
 30
0.0
 11
5.63619
 21
108.952
 31
0.0
  0
LINE
  8
0
 62
     5
 10
5.63619
 20
108.952
 30
0.0
 11
6.12401
 21
109.201
 31
0.0
  0
LINE
  8
0
 62
     5
 10
6.12401
 20
109.201
 30
0.0
 11
6.50984
 21
109.587
 31
0.0
  0
LINE
  8
0
 62
     5
 10
6.50984
 20
109.587
 30
0.0
 11
6.75929
 21
110.075
 31
0.0
  0
LINE
  8
0
 62
     5
 10
6.75929
 20
110.075
 30
0.0
 11
6.8447
 21
110.615
 31
0.0
  0
LINE
  8
0
 62
     5
 10
6.8447
 20
110.615
 30
0.0
 11
6.75929
 21
111.157
 31
0.0
  0
LINE
  8
0
 62
     5
 10
6.75929
 20
111.157
 30
0.0
 11
6.50984
 21
111.645
 31
0.0
  0
LINE
  8
0
 62
     5
 10
6.50984
 20
111.645
 30
0.0
 11
6.12401
 21
112.032
 31
0.0
  0
LINE
  8
0
 62
     5
 10
6.12401
 20
112.032
 30
0.0
 11
5.63619
 21
112.281
 31
0.0
  0
LINE
  8
0
 62
     5
 10
5.63619
 20
112.281
 30
0.0
 11
5.0946
 21
112.365
 31
0.0
  0
LINE
  8
0
 62
     5
 10
5.0946
 20
112.365
 30
0.0
 11
4.55443
 21
112.281
 31
0.0
  0
LINE
  8
0
 62
     5
 10
343.167
 20
112.281
 30
0.0
 11
342.68
 21
112.032
 31
0.0
  0
LINE
  8
0
 62
     5
 10
342.68
 20
112.032
 30
0.0
 11
342.292
 21
111.645
 31
0.0
  0
LINE
  8
0
 62
     5
 10
342.292
 20
111.645
 30
0.0
 11
342.044
 21
111.157
 31
0.0
  0
LINE
  8
0
 62
     5
 10
342.044
 20
111.157
 30
0.0
 11
341.959
 21
110.615
 31
0.0
  0
LINE
  8
0
 62
     5
 10
341.959
 20
110.615
 30
0.0
 11
342.044
 21
110.075
 31
0.0
  0
LINE
  8
0
 62
     5
 10
342.044
 20
110.075
 30
0.0
 11
342.292
 21
109.587
 31
0.0
  0
LINE
  8
0
 62
     5
 10
342.292
 20
109.587
 30
0.0
 11
342.68
 21
109.201
 31
0.0
  0
LINE
  8
0
 62
     5
 10
342.68
 20
109.201
 30
0.0
 11
343.167
 21
108.952
 31
0.0
  0
LINE
  8
0
 62
     5
 10
343.167
 20
108.952
 30
0.0
 11
343.709
 21
108.865
 31
0.0
  0
LINE
  8
0
 62
     5
 10
343.709
 20
108.865
 30
0.0
 11
344.249
 21
108.952
 31
0.0
  0
LINE
  8
0
 62
     5
 10
344.249
 20
108.952
 30
0.0
 11
344.737
 21
109.201
 31
0.0
  0
LINE
  8
0
 62
     5
 10
344.737
 20
109.201
 30
0.0
 11
345.124
 21
109.587
 31
0.0
  0
LINE
  8
0
 62
     5
 10
345.124
 20
109.587
 30
0.0
 11
345.372
 21
110.075
 31
0.0
  0
LINE
  8
0
 62
     5
 10
345.372
 20
110.075
 30
0.0
 11
345.459
 21
110.615
 31
0.0
  0
LINE
  8
0
 62
     5
 10
345.459
 20
110.615
 30
0.0
 11
345.372
 21
111.157
 31
0.0
  0
LINE
  8
0
 62
     5
 10
345.372
 20
111.157
 30
0.0
 11
345.124
 21
111.645
 31
0.0
  0
LINE
  8
0
 62
     5
 10
345.124
 20
111.645
 30
0.0
 11
344.737
 21
112.032
 31
0.0
  0
LINE
  8
0
 62
     5
 10
344.737
 20
112.032
 30
0.0
 11
344.249
 21
112.281
 31
0.0
  0
LINE
  8
0
 62
     5
 10
344.249
 20
112.281
 30
0.0
 11
343.709
 21
112.365
 31
0.0
  0
LINE
  8
0
 62
     5
 10
343.709
 20
112.365
 30
0.0
 11
343.167
 21
112.281
 31
0.0
  0
LINE
  8
0
 62
     5
 10
258.514
 20
112.281
 30
0.0
 11
258.027
 21
112.032
 31
0.0
  0
LINE
  8
0
 62
     5
 10
258.027
 20
112.032
 30
0.0
 11
257.639
 21
111.645
 31
0.0
  0
LINE
  8
0
 62
     5
 10
257.639
 20
111.645
 30
0.0
 11
257.39
 21
111.157
 31
0.0
  0
LINE
  8
0
 62
     5
 10
257.39
 20
111.157
 30
0.0
 11
257.306
 21
110.615
 31
0.0
  0
LINE
  8
0
 62
     5
 10
257.306
 20
110.615
 30
0.0
 11
257.39
 21
110.075
 31
0.0
  0
LINE
  8
0
 62
     5
 10
257.39
 20
110.075
 30
0.0
 11
257.639
 21
109.587
 31
0.0
  0
LINE
  8
0
 62
     5
 10
257.639
 20
109.587
 30
0.0
 11
258.027
 21
109.201
 31
0.0
  0
LINE
  8
0
 62
     5
 10
258.027
 20
109.201
 30
0.0
 11
258.514
 21
108.952
 31
0.0
  0
LINE
  8
0
 62
     5
 10
258.514
 20
108.952
 30
0.0
 11
259.056
 21
108.865
 31
0.0
  0
LINE
  8
0
 62
     5
 10
259.056
 20
108.865
 30
0.0
 11
259.595
 21
108.952
 31
0.0
  0
LINE
  8
0
 62
     5
 10
259.595
 20
108.952
 30
0.0
 11
260.084
 21
109.201
 31
0.0
  0
LINE
  8
0
 62
     5
 10
260.084
 20
109.201
 30
0.0
 11
260.47
 21
109.587
 31
0.0
  0
LINE
  8
0
 62
     5
 10
260.47
 20
109.587
 30
0.0
 11
260.719
 21
110.075
 31
0.0
  0
LINE
  8
0
 62
     5
 10
260.719
 20
110.075
 30
0.0
 11
260.806
 21
110.615
 31
0.0
  0
LINE
  8
0
 62
     5
 10
260.806
 20
110.615
 30
0.0
 11
260.719
 21
111.157
 31
0.0
  0
LINE
  8
0
 62
     5
 10
260.719
 20
111.157
 30
0.0
 11
260.47
 21
111.645
 31
0.0
  0
LINE
  8
0
 62
     5
 10
260.47
 20
111.645
 30
0.0
 11
260.084
 21
112.032
 31
0.0
  0
LINE
  8
0
 62
     5
 10
260.084
 20
112.032
 30
0.0
 11
259.595
 21
112.281
 31
0.0
  0
LINE
  8
0
 62
     5
 10
259.595
 20
112.281
 30
0.0
 11
259.056
 21
112.365
 31
0.0
  0
LINE
  8
0
 62
     5
 10
259.056
 20
112.365
 30
0.0
 11
258.514
 21
112.281
 31
0.0
  0
LINE
  8
0
 62
     5
 10
173.86
 20
112.281
 30
0.0
 11
173.374
 21
112.032
 31
0.0
  0
LINE
  8
0
 62
     5
 10
173.374
 20
112.032
 30
0.0
 11
172.985
 21
111.645
 31
0.0
  0
LINE
  8
0
 62
     5
 10
172.985
 20
111.645
 30
0.0
 11
172.737
 21
111.157
 31
0.0
  0
LINE
  8
0
 62
     5
 10
172.737
 20
111.157
 30
0.0
 11
172.652
 21
110.615
 31
0.0
  0
LINE
  8
0
 62
     5
 10
172.652
 20
110.615
 30
0.0
 11
172.737
 21
110.075
 31
0.0
  0
LINE
  8
0
 62
     5
 10
172.737
 20
110.075
 30
0.0
 11
172.985
 21
109.587
 31
0.0
  0
LINE
  8
0
 62
     5
 10
172.985
 20
109.587
 30
0.0
 11
173.374
 21
109.201
 31
0.0
  0
LINE
  8
0
 62
     5
 10
173.374
 20
109.201
 30
0.0
 11
173.86
 21
108.952
 31
0.0
  0
LINE
  8
0
 62
     5
 10
173.86
 20
108.952
 30
0.0
 11
174.402
 21
108.865
 31
0.0
  0
LINE
  8
0
 62
     5
 10
174.402
 20
108.865
 30
0.0
 11
174.942
 21
108.952
 31
0.0
  0
LINE
  8
0
 62
     5
 10
174.942
 20
108.952
 30
0.0
 11
175.431
 21
109.201
 31
0.0
  0
LINE
  8
0
 62
     5
 10
175.431
 20
109.201
 30
0.0
 11
175.817
 21
109.587
 31
0.0
  0
LINE
  8
0
 62
     5
 10
175.817
 20
109.587
 30
0.0
 11
176.066
 21
110.075
 31
0.0
  0
LINE
  8
0
 62
     5
 10
176.066
 20
110.075
 30
0.0
 11
176.152
 21
110.615
 31
0.0
  0
LINE
  8
0
 62
     5
 10
176.152
 20
110.615
 30
0.0
 11
176.066
 21
111.157
 31
0.0
  0
LINE
  8
0
 62
     5
 10
176.066
 20
111.157
 30
0.0
 11
175.817
 21
111.645
 31
0.0
  0
LINE
  8
0
 62
     5
 10
175.817
 20
111.645
 30
0.0
 11
175.431
 21
112.032
 31
0.0
  0
LINE
  8
0
 62
     5
 10
175.431
 20
112.032
 30
0.0
 11
174.942
 21
112.281
 31
0.0
  0
LINE
  8
0
 62
     5
 10
174.942
 20
112.281
 30
0.0
 11
174.402
 21
112.365
 31
0.0
  0
LINE
  8
0
 62
     5
 10
174.402
 20
112.365
 30
0.0
 11
173.86
 21
112.281
 31
0.0
  0
LINE
  8
0
 62
     5
 10
89.2073
 20
112.281
 30
0.0
 11
88.7194
 21
112.032
 31
0.0
  0
LINE
  8
0
 62
     5
 10
88.7194
 20
112.032
 30
0.0
 11
88.3324
 21
111.645
 31
0.0
  0
LINE
  8
0
 62
     5
 10
88.3324
 20
111.645
 30
0.0
 11
88.0844
 21
111.157
 31
0.0
  0
LINE
  8
0
 62
     5
 10
88.0844
 20
111.157
 30
0.0
 11
87.9987
 21
110.615
 31
0.0
  0
LINE
  8
0
 62
     5
 10
87.9987
 20
110.615
 30
0.0
 11
88.0844
 21
110.075
 31
0.0
  0
LINE
  8
0
 62
     5
 10
88.0844
 20
110.075
 30
0.0
 11
88.3324
 21
109.587
 31
0.0
  0
LINE
  8
0
 62
     5
 10
88.3324
 20
109.587
 30
0.0
 11
88.7194
 21
109.201
 31
0.0
  0
LINE
  8
0
 62
     5
 10
88.7194
 20
109.201
 30
0.0
 11
89.2073
 21
108.952
 31
0.0
  0
LINE
  8
0
 62
     5
 10
89.2073
 20
108.952
 30
0.0
 11
89.7488
 21
108.865
 31
0.0
  0
LINE
  8
0
 62
     5
 10
89.7488
 20
108.865
 30
0.0
 11
90.2892
 21
108.952
 31
0.0
  0
LINE
  8
0
 62
     5
 10
90.2892
 20
108.952
 30
0.0
 11
90.7768
 21
109.201
 31
0.0
  0
LINE
  8
0
 62
     5
 10
90.7768
 20
109.201
 30
0.0
 11
91.1641
 21
109.587
 31
0.0
  0
LINE
  8
0
 62
     5
 10
91.1641
 20
109.587
 30
0.0
 11
91.4121
 21
110.075
 31
0.0
  0
LINE
  8
0
 62
     5
 10
91.4121
 20
110.075
 30
0.0
 11
91.4989
 21
110.615
 31
0.0
  0
LINE
  8
0
 62
     5
 10
91.4989
 20
110.615
 30
0.0
 11
91.4121
 21
111.157
 31
0.0
  0
LINE
  8
0
 62
     5
 10
91.4121
 20
111.157
 30
0.0
 11
91.1641
 21
111.645
 31
0.0
  0
LINE
  8
0
 62
     5
 10
91.1641
 20
111.645
 30
0.0
 11
90.7768
 21
112.032
 31
0.0
  0
LINE
  8
0
 62
     5
 10
90.7768
 20
112.032
 30
0.0
 11
90.2892
 21
112.281
 31
0.0
  0
LINE
  8
0
 62
     5
 10
90.2892
 20
112.281
 30
0.0
 11
89.7488
 21
112.365
 31
0.0
  0
LINE
  8
0
 62
     5
 10
89.7488
 20
112.365
 30
0.0
 11
89.2073
 21
112.281
 31
0.0
  0
ENDSEC
  0
EOF
